<svg width="17" height="16" viewBox="0 0 17 16" fill="none" xmlns="http://www.w3.org/2000/svg">
<g id="Icons/Outline/clipboard-copy">
<path id="Vector" fill-rule="evenodd" clip-rule="evenodd" d="M2.79281 2.6346C3.19913 2.22827 3.75023 2 4.32487 2H9.82487C10.3995 2 10.9506 2.22827 11.3569 2.6346C11.7633 3.04093 11.9915 3.59203 11.9915 4.16667V5H12.3249C12.8995 5 13.4506 5.22827 13.8569 5.6346C14.2633 6.04093 14.4915 6.59203 14.4915 7.16667V12.1667C14.4915 12.7413 14.2633 13.2924 13.8569 13.6987C13.4506 14.1051 12.8995 14.3333 12.3249 14.3333H7.32487C6.75023 14.3333 6.19913 14.1051 5.79281 13.6987C5.38648 13.2924 5.1582 12.7413 5.1582 12.1667V11.8333H4.32487C3.75023 11.8333 3.19913 11.6051 2.79281 11.1987C2.38648 10.7924 2.1582 10.2413 2.1582 9.66667V4.16667C2.1582 3.59203 2.38648 3.04093 2.79281 2.6346ZM5.1582 10.5V7.16667C5.1582 6.59203 5.38648 6.04093 5.79281 5.6346C6.19913 5.22827 6.75023 5 7.32487 5H10.6582V4.16667C10.6582 3.94565 10.5704 3.73369 10.4141 3.57741C10.2578 3.42113 10.0459 3.33333 9.82487 3.33333H4.32487C4.10386 3.33333 3.89189 3.42113 3.73561 3.57741C3.57933 3.73369 3.49154 3.94565 3.49154 4.16667V9.66667C3.49154 9.88768 3.57933 10.0996 3.73561 10.2559C3.89189 10.4122 4.10386 10.5 4.32487 10.5H5.1582ZM7.32487 6.33333C7.10386 6.33333 6.89189 6.42113 6.73561 6.57741C6.57933 6.73369 6.49154 6.94565 6.49154 7.16667V12.1667C6.49154 12.3877 6.57933 12.5996 6.73561 12.7559C6.89189 12.9122 7.10386 13 7.32487 13H12.3249C12.5459 13 12.7578 12.9122 12.9141 12.7559C13.0704 12.5996 13.1582 12.3877 13.1582 12.1667V7.16667C13.1582 6.94565 13.0704 6.73369 12.9141 6.57741C12.7578 6.42113 12.5459 6.33333 12.3249 6.33333H7.32487Z" fill="#517789"/>
</g>
</svg>
