<svg width="20" height="20" viewBox="0 0 20 20" fill="none" xmlns="http://www.w3.org/2000/svg">
<path d="M2.94162 2.05837C2.82314 1.94797 2.66644 1.88787 2.50452 1.89072C2.3426 1.89358 2.18811 1.95917 2.0736 2.07368C1.95909 2.18819 1.8935 2.34268 1.89064 2.5046C1.88778 2.66652 1.94789 2.82322 2.05829 2.9417L17.0583 17.9417C17.1155 18.0031 17.1845 18.0524 17.2612 18.0865C17.3378 18.1207 17.4206 18.139 17.5045 18.1405C17.5884 18.142 17.6718 18.1266 17.7496 18.0951C17.8274 18.0637 17.8981 18.0169 17.9575 17.9576C18.0168 17.8982 18.0636 17.8275 18.0951 17.7497C18.1265 17.6719 18.1419 17.5885 18.1404 17.5046C18.139 17.4207 18.1206 17.3379 18.0864 17.2613C18.0523 17.1846 18.003 17.1156 17.9416 17.0584L2.94162 2.05837Z" fill="#4B5563"/>
<path d="M18.8966 10.4609C18.4474 11.8088 17.6977 13.0369 16.7041 14.0525L14.1216 11.47C14.4002 10.69 14.4517 9.84684 14.27 9.03868C14.0883 8.23053 13.6809 7.49057 13.0951 6.90486C12.5094 6.31914 11.7695 5.91173 10.9613 5.73002C10.1532 5.54831 9.31002 5.59975 8.52995 5.87837L6.46579 3.8142C7.58831 3.3575 8.78892 3.12344 10.0008 3.12503C14.1425 3.12503 17.655 5.81087 18.8966 9.53337C18.9966 9.83503 18.9966 10.16 18.8966 10.4609Z" fill="#4B5563"/>
<path d="M13.125 10C13.125 10.15 13.1142 10.2975 13.0942 10.4417L9.55749 6.90584C10.0008 6.84242 10.4526 6.87503 10.8822 7.00146C11.3118 7.12788 11.7092 7.34516 12.0475 7.63859C12.3858 7.93201 12.6571 8.29472 12.843 8.70214C13.0289 9.10956 13.1251 9.55218 13.125 10Z" fill="#4B5563"/>
<path d="M10.4409 13.0934L6.90583 9.5575C6.83716 10.0378 6.88127 10.5275 7.03468 10.9878C7.18809 11.4481 7.44657 11.8664 7.78966 12.2095C8.13275 12.5526 8.55102 12.8111 9.01133 12.9645C9.4714 13.1178 9.96085 13.162 10.4409 13.0934Z" fill="#4B5563"/>
<path d="M5.87832 8.53035C5.71415 8.98952 5.62499 9.48452 5.62499 10.0004C5.62482 10.7014 5.79313 11.3922 6.11574 12.0146C6.43834 12.637 6.90579 13.1728 7.47872 13.5768C8.05165 13.9808 8.71327 14.2412 9.40787 14.3361C10.1025 14.431 10.8097 14.3576 11.47 14.122L13.5342 16.1862C12.4433 16.6304 11.2492 16.8754 9.99915 16.8754C5.85665 16.8754 2.34415 14.1895 1.10332 10.467C1.00332 10.1654 1.00332 9.84035 1.10332 9.53869C1.55231 8.19087 2.30174 6.96272 3.29499 5.94702L5.87832 8.53035Z" fill="#4B5563"/>
</svg>
