<svg width="21" height="21" viewBox="0 0 21 21" fill="none" xmlns="http://www.w3.org/2000/svg">
<path fill-rule="evenodd" clip-rule="evenodd" d="M9.33841 2.52839C7.51718 2.52839 5.77054 3.2519 4.48273 4.53976C3.19493 5.82761 2.47144 7.57432 2.47144 9.39562C2.47144 11.2169 3.19493 12.9636 4.48273 14.2515C5.77054 15.5393 7.51718 16.2628 9.33841 16.2628C11.1596 16.2628 12.9063 15.5393 14.1941 14.2515C15.4819 12.9636 16.2054 11.2169 16.2054 9.39562C16.2054 7.57432 15.4819 5.82761 14.1941 4.53976C12.9063 3.2519 11.1596 2.52839 9.33841 2.52839ZM0.598633 9.39562C0.598751 7.99804 0.934006 6.62086 1.57628 5.37962C2.21855 4.13837 3.1491 3.06925 4.28988 2.26194C5.43067 1.45463 6.74841 0.932667 8.13257 0.73984C9.51674 0.547014 10.927 0.688945 12.2449 1.15373C13.5629 1.61851 14.7502 2.39259 15.7073 3.41104C16.6643 4.42948 17.3632 5.6626 17.7452 7.00694C18.1273 8.35127 18.1814 9.76764 17.9031 11.1372C17.6247 12.5068 17.022 13.7896 16.1455 14.8782L20.3006 19.0347C20.3926 19.1204 20.4664 19.2238 20.5176 19.3387C20.5687 19.4536 20.5963 19.5776 20.5985 19.7033C20.6007 19.829 20.5776 19.9539 20.5305 20.0705C20.4834 20.1871 20.4133 20.2931 20.3244 20.382C20.2354 20.4709 20.1295 20.541 20.0129 20.5881C19.8963 20.6352 19.7714 20.6583 19.6457 20.6561C19.52 20.6539 19.396 20.6264 19.2811 20.5752C19.1663 20.524 19.0629 20.4502 18.9771 20.3582L14.8208 16.2029C13.5367 17.2372 11.9862 17.8872 10.3485 18.0777C8.71074 18.2683 7.05249 17.9917 5.56526 17.2798C4.07803 16.568 2.82249 15.45 1.94365 14.0548C1.06481 12.6597 0.598521 11.0445 0.598633 9.39562Z" fill="#4B5563" stroke="#4B5563" stroke-width="0.33"/>
</svg>
